# xmcd
#
# Track frame offsets:
#	150
#	10999
#	21375
#	30483
#	42725
#	52822
#	63302
#	75670
#	87237
#
# Disc length: 1318 seconds
#
# Revision: 0
# Processed by: cddbd v1.5.2PL0 Copyright (c) Steve Scherf et al.
# Submitted via: EZCDAudioConverter 1.5.5.1
#
DISCID=69052409
DTITLE=Bobby Bare - I'm A Long Way From Home
DYEAR=1971
DGENRE=Country
TTITLE0=Talk Me Some Sense
TTITLE1=One Day At A Time
TTITLE2=Let Me Tell You About Mary
TTITLE3=Long Way To Tennessee
TTITLE4=Find Out What's Happening
TTITLE5=A Little Bit Later On Down The Line
TTITLE6=I Was Coming Home To You
TTITLE7=I Wonder Where You Are Tonight
TTITLE8=I'm A Long Way From Home
EXTD=
EXTT0=
EXTT1=
EXTT2=
EXTT3=
EXTT4=
EXTT5=
EXTT6=
EXTT7=
EXTT8=
PLAYORDER=
